<svg style="text-align:center" width="1200" height="800" xmlns="http://www.w3.org/2000/svg" viewBox="-60 -18.869525 520 113.21715"><path style="text-align:center" d="M180.8784.0083h-35.539c-4.8798 0-9.4121 3.5812-10.1151 7.9977l-9.5774 59.4744c-.7113 4.4165 2.6631 7.9894 7.5428 7.9894h35.5308c4.8797 0 9.4037-3.573 10.115-7.9894l2.7293-16.9384a.9098.9098 0 00-.918-1.0752h-15.6895c-.6037 0-1.1744.4797-1.2737 1.0752l-1.2488 7.7993c-.2316 1.4225-1.6872 2.5804-3.267 2.5804h-11.7443c-1.5714 0-2.6549-1.1579-2.4316-2.5804l6.6414-41.2128c.2233-1.4225 1.6872-2.5721 3.2586-2.5721h11.7444c1.5714 0 2.6631 1.1496 2.4315 2.5721l-1.2406 7.8076a.9098.9098 0 00.9098 1.0751h15.6978a1.3233 1.3233 0 001.2654-1.0751l2.7127-16.9384C189.1242 3.5812 185.7498 0 180.8784 0zm-63.9736.0083H87.734c-4.8797 0-10.024 3.5729-11.5127 7.9894L53.907 74.436c-.1902.579.1406 1.042.7444 1.042h15.6894c.6038 0 1.2572-.4713 1.4474-1.042l7.5263-22.43a1.6293 1.6293 0 011.4474-1.0339h17.7984c.6038 0 1.0173.4797.918 1.0752l-3.5977 22.3473a.9098.9098 0 00.9264 1.0752h15.6894c.5955 0 1.1662-.4797 1.2654-1.0752L124.4476 8.006c.7113-4.4165-2.6631-7.9895-7.5428-7.9895zm-11.8023 17.1202l-2.936 18.1955c-.091.6038-.6617 1.0835-1.2655 1.0835H85.65c-.6038 0-.9347-.4632-.7444-1.0339l6.1285-18.245a4.1353 4.1353 0 013.7136-2.5722h7.9233c1.5714 0 2.6548 1.1496 2.4315 2.5721zm137.4667-.3721l2.5309-15.673a.9098.9098 0 00-.918-1.0751h-46.6218c-.6038 0-1.1744.4797-1.2654 1.0752l-2.5308 15.6729a.9098.9098 0 00.918 1.0834h12.9932c.6038 0 1.0173.488.918 1.0752l-8.924 55.4714a.9098.9098 0 00.9263 1.0751h15.6895c.5955 0 1.1661-.4797 1.2654-1.0751l8.924-55.4631c.0992-.5955.6617-1.0835 1.2654-1.0835h13.564c.5954 0 1.1661-.488 1.2653-1.0752zM325.036.0083h-35.539c-4.8797 0-9.4037 3.5481-10.1067 7.9068l-9.5775 58.8292c-.7113 4.3669 2.6632 7.9067 7.5346 7.9067h35.5473c4.8797 0 9.4038-3.5398 10.115-7.9067L332.579 7.915c.7113-4.3586-2.6632-7.8985-7.5346-7.8985zm-11.8022 16.9383l-6.633 40.7661c-.2316 1.406-1.6873 2.5474-3.2587 2.5474h-11.7444c-1.5796 0-2.6631-1.1414-2.4398-2.5474l6.633-40.766c.2317-1.406 1.6956-2.5474 3.267-2.5474h11.7443c1.5715 0 2.655 1.1413 2.4316 2.5473zm85.833-16.93h-15.6895c-.6037 0-1.1744.488-1.2654 1.0752l-5.5661 34.5465c-.091.5955-.4053.6451-.6865.1158L357.333.9842a2.0098 2.0098 0 00-1.6128-.9677h-9.9661a1.3233 1.3233 0 00-1.2654 1.0752l-11.8023 73.303a.9098.9098 0 00.9263 1.0751h15.6895c.6037 0 1.1744-.4797 1.2654-1.0752l5.5579-34.5383c.0992-.5955.4135-.645.6947-.1158l18.5263 34.77a2.0098 2.0098 0 001.6128.9676h9.9661a1.3233 1.3233 0 001.2655-1.0835l11.794-73.3029a.9098.9098 0 00-.9099-1.0752zm-130.2465 0H253.131c-.6038 0-1.1744.488-1.2737 1.0752l-11.794 73.3029a.9098.9098 0 00.9098 1.0751h15.6977a1.3233 1.3233 0 001.2654-1.0751l11.8023-73.303a.9098.9098 0 00-.918-1.0751z" fill="#001489"/><path d="M58.456.0083h8.585c.6037 0 .9345.4631.7443 1.0338L43.1387 74.4277a1.6293 1.6293 0 01-1.4474 1.0421h-8.5849c-.5955 0-.9346-.4714-.7444-1.042L57.017 1.042A1.6293 1.6293 0 0158.4643.0083zm-17.9474 0h4.9955c.5955 0 .9346.4631.7444 1.0338L21.5854 74.4277a1.6293 1.6293 0 01-1.4391 1.0421h-4.9955c-.6038 0-.9346-.4714-.7444-1.042L39.053 1.042A1.6293 1.6293 0 0140.517.0083zM28.293 1.042c.1985-.5707-.1406-1.0338-.7444-1.0338h-1.53c-.7444 0-1.0753.3804-1.3151 1.0338L.0568 74.4277c-.1985.579.1406 1.0421.7444 1.0421h1.5383c.7196 0 1.0752-.339 1.3068-1.042L28.2846 1.042z" style="text-align:center" fill="#62b5e5"/></svg>